<svg width="180" height="180" viewBox="0 0 180 180" fill="none" xmlns="http://www.w3.org/2000/svg">
<path fill-rule="evenodd" clip-rule="evenodd" d="M117.969 67.625C119.034 67.6246 120.077 67.9283 120.975 68.5004C121.874 69.0725 122.59 69.8892 123.04 70.8545L162.197 154.761C162.507 155.427 162.683 156.147 162.715 156.882C162.747 157.616 162.634 158.349 162.383 159.039C162.132 159.73 161.747 160.364 161.25 160.906C160.754 161.448 160.155 161.886 159.489 162.197C158.144 162.824 156.605 162.891 155.211 162.383C153.816 161.875 152.68 160.834 152.053 159.489L143.118 140.344H92.8192L83.8842 159.489C83.2571 160.834 82.1214 161.875 80.7269 162.383C79.3324 162.891 77.7933 162.824 76.4482 162.197C75.1031 161.57 74.0622 160.434 73.5545 159.039C73.0467 157.645 73.1138 156.106 73.7408 154.761L112.897 70.8545C113.347 69.8892 114.064 69.0725 114.962 68.5004C115.861 67.9283 116.904 67.6246 117.969 67.625ZM98.0401 129.156H137.897L117.969 86.4498L98.0401 129.156Z" fill="#0CA4A5"/>
<path fill-rule="evenodd" clip-rule="evenodd" d="M67.625 17.2812C69.1085 17.2812 70.5313 17.8706 71.5803 18.9196C72.6294 19.9687 73.2187 21.3914 73.2187 22.875V34.1072C86.5423 34.308 99.8451 35.2317 113.069 36.8743C113.798 36.9654 114.502 37.1992 115.141 37.5624C115.78 37.9256 116.341 38.4111 116.792 38.9911C117.243 39.5711 117.576 40.2344 117.77 40.9429C117.965 41.6515 118.019 42.3914 117.928 43.1206C117.837 43.8498 117.603 44.554 117.24 45.1928C116.876 45.8316 116.391 46.3926 115.811 46.8439C115.231 47.2951 114.568 47.6276 113.859 47.8225C113.151 48.0174 112.411 48.0708 111.681 47.9797C106.759 47.3607 101.814 46.8535 96.8393 46.4433C92.4907 63.4162 84.9779 79.4158 74.6955 93.6024C77.0598 96.4664 79.5434 99.2185 82.1389 101.859C82.6541 102.383 83.061 103.003 83.3364 103.684C83.6119 104.366 83.7505 105.094 83.7442 105.829C83.738 106.564 83.5871 107.291 83.3001 107.967C83.0132 108.644 82.5958 109.257 82.0718 109.772C81.5478 110.287 80.9274 110.694 80.2462 110.97C79.5649 111.245 78.836 111.384 78.1012 111.377C77.3664 111.371 76.64 111.22 75.9635 110.933C75.287 110.646 74.6737 110.229 74.1585 109.705C71.8999 107.406 69.7207 105.03 67.625 102.582C55.8511 116.341 41.5265 127.693 25.4406 136.01C24.7878 136.347 24.0751 136.552 23.343 136.614C22.611 136.675 21.874 136.592 21.1741 136.369C20.4743 136.145 19.8253 135.786 19.2642 135.312C18.7031 134.838 18.2409 134.258 17.904 133.605C17.567 132.952 17.362 132.24 17.3005 131.508C17.2391 130.775 17.3224 130.039 17.5457 129.339C17.7691 128.639 18.1281 127.99 18.6023 127.429C19.0764 126.868 19.6565 126.405 20.3093 126.068C35.775 118.069 49.4642 107.026 60.5545 93.6024C54.0475 84.6187 48.6344 74.8915 44.4295 64.6267C43.9009 63.2605 43.9293 61.7415 44.5086 60.396C45.088 59.0505 46.172 57.9859 47.5278 57.4311C48.8836 56.8763 50.403 56.8755 51.7593 57.4288C53.1157 57.9822 54.2009 59.0455 54.7817 60.3904C58.2114 68.7614 62.5164 76.7465 67.625 84.2123C75.6709 72.4531 81.698 59.4335 85.4578 45.69C64.8007 44.6655 44.0936 45.4316 23.5686 47.9797C22.0959 48.1637 20.6105 47.7551 19.4391 46.8439C18.2676 45.9326 17.5062 44.5933 17.3222 43.1206C17.1383 41.648 17.5469 40.1625 18.4581 38.9911C19.3694 37.8197 20.7087 37.0583 22.1813 36.8743C35.4045 35.2285 48.7075 34.3048 62.0312 34.1072V22.875C62.0312 21.3914 62.6206 19.9687 63.6696 18.9196C64.7186 17.8706 66.1414 17.2813 67.625 17.2812Z" fill="white"/>
</svg>
