<svg width="24" height="25" viewBox="0 0 24 25" fill="none" xmlns="http://www.w3.org/2000/svg">
<g clip-path="url(#clip0_2_65)">
<path d="M23.4572 10.1916L23.4257 10.1089L20.2393 1.94148C20.1748 1.78111 20.0601 1.64507 19.9117 1.55305C19.801 1.48339 19.6752 1.4402 19.5444 1.42692C19.4136 1.41365 19.2815 1.43067 19.1586 1.47661C19.0357 1.52256 18.9255 1.59616 18.8368 1.6915C18.748 1.78685 18.6833 1.90129 18.6477 2.02566L16.4969 8.49606H7.78704L5.63626 2.02566C5.60038 1.90148 5.53547 1.78725 5.44671 1.69209C5.35794 1.59692 5.24777 1.52346 5.12499 1.47755C5.0022 1.43164 4.8702 1.41456 4.73951 1.42767C4.60882 1.44078 4.48306 1.48371 4.37224 1.55305C4.22384 1.64507 4.10908 1.78111 4.04459 1.94148L0.859748 10.1103L0.826682 10.1916C0.368158 11.3691 0.31167 12.6613 0.665732 13.8731C1.01979 15.085 1.76521 16.1509 2.78959 16.9101L2.80162 16.919L2.82867 16.9396L7.67582 20.5094L10.0806 22.295L11.5415 23.3805C11.7129 23.5077 11.9219 23.5766 12.1367 23.5766C12.3515 23.5766 12.5605 23.5077 12.7319 23.3805L14.1928 22.295L16.5976 20.5094L21.4793 16.919L21.4928 16.9086C22.5171 16.1497 23.2627 15.0841 23.617 13.8726C23.9713 12.661 23.9152 11.3691 23.4572 10.1916Z" fill="#E24329"/>
<path d="M23.4573 10.1916L23.4257 10.1089C21.8733 10.4219 20.4105 11.0685 19.1422 12.0023L12.1458 17.201L16.6006 20.5093L21.4823 16.9189L21.4959 16.9086C22.5197 16.1493 23.2646 15.0836 23.6184 13.872C23.9721 12.6605 23.9156 11.3688 23.4573 10.1916Z" fill="#FC6D26"/>
<path d="M7.67578 20.5094L10.0806 22.295L11.5415 23.3805C11.7129 23.5077 11.9218 23.5766 12.1367 23.5766C12.3515 23.5766 12.5604 23.5077 12.7318 23.3805L14.1928 22.295L16.5975 20.5094L12.1427 17.201L7.67578 20.5094Z" fill="#FCA326"/>
<path d="M5.14178 12.0023C3.87394 11.069 2.41164 10.4229 0.859748 10.1104L0.826682 10.1916C0.368158 11.3691 0.31167 12.6613 0.665732 13.8731C1.01979 15.085 1.76521 16.1509 2.78959 16.9101L2.80162 16.919L2.82867 16.9396L7.67582 20.5094L12.1337 17.2011L5.14178 12.0023Z" fill="#FC6D26"/>
</g>
<defs>
<clipPath id="clip0_2_65">
<rect width="24" height="24" fill="white" transform="translate(0 0.5)"/>
</clipPath>
</defs>
</svg>
