<svg width="20" height="20" viewBox="0 0 20 20" fill="none" xmlns="http://www.w3.org/2000/svg">
<path d="M6.3 2.84101C6.07307 2.69793 5.81192 2.61833 5.54376 2.6105C5.27561 2.60268 5.01026 2.66691 4.77537 2.79651C4.54048 2.9261 4.34464 3.11632 4.20827 3.34735C4.0719 3.57837 3.99997 3.84174 4 4.11001V15.89C3.99997 16.1583 4.0719 16.4216 4.20827 16.6527C4.34464 16.8837 4.54048 17.0739 4.77537 17.2035C5.01026 17.3331 5.27561 17.3973 5.54376 17.3895C5.81192 17.3817 6.07307 17.3021 6.3 17.159L15.644 11.269C15.8584 11.1339 16.0351 10.9466 16.1576 10.7247C16.28 10.5028 16.3442 10.2535 16.3442 10C16.3442 9.74655 16.28 9.49723 16.1576 9.27532C16.0351 9.05341 15.8584 8.86614 15.644 8.73101L6.3 2.84001V2.84101Z" fill="black"/>
</svg>
